<svg width="80" height="80" viewBox="0 0 80 80" fill="none" xmlns="http://www.w3.org/2000/svg">
<path d="M16.6667 18.333C14.2355 18.333 11.9039 19.2988 10.1849 21.0179C8.46577 22.7369 7.5 25.0685 7.5 27.4997V52.4997C7.5 54.9308 8.46577 57.2624 10.1849 58.9815C11.9039 60.7006 14.2355 61.6663 16.6667 61.6663H45C47.4311 61.6663 49.7627 60.7006 51.4818 58.9815C53.2009 57.2624 54.1667 54.9308 54.1667 52.4997V47.1863L65.5633 57.3363C68.2467 59.7263 72.5 57.8197 72.5 54.223V24.5497C72.5 20.9497 68.2467 19.0463 65.5633 21.4363L54.1667 31.5863V27.4997C54.1667 25.0685 53.2009 22.7369 51.4818 21.0179C49.7627 19.2988 47.4311 18.333 45 18.333H16.6667Z" fill="black"/>
</svg>
