<svg width="80" height="80" viewBox="0 0 80 80" fill="none" xmlns="http://www.w3.org/2000/svg">
<path d="M56.6665 51.9666L49.9998 45.3L28.0332 23.3333L21.3665 16.6666L15.6998 10.9666C15.389 10.6558 15.0201 10.4093 14.614 10.2411C14.2079 10.0729 13.7727 9.98633 13.3332 9.98633C12.8936 9.98633 12.4584 10.0729 12.0523 10.2411C11.6463 10.4093 11.2773 10.6558 10.9665 10.9666C10.3388 11.5943 9.9862 12.4456 9.9862 13.3333C9.9862 14.221 10.3388 15.0723 10.9665 15.7L12.7665 17.4666L18.6332 23.3333L49.7665 54.4666L54.6332 59.3333L64.2998 69.0333C64.6097 69.3457 64.9784 69.5937 65.3846 69.7629C65.7908 69.9322 66.2265 70.0193 66.6665 70.0193C67.1065 70.0193 67.5422 69.9322 67.9484 69.7629C68.3546 69.5937 68.7233 69.3457 69.0332 69.0333C69.3456 68.7234 69.5936 68.3548 69.7628 67.9486C69.932 67.5424 70.0192 67.1067 70.0192 66.6666C70.0192 66.2266 69.932 65.7909 69.7628 65.3847C69.5936 64.9785 69.3456 64.6098 69.0332 64.3L56.6665 51.9666ZM46.6665 56.6666H16.6665C15.7824 56.6666 14.9346 56.3154 14.3095 55.6903C13.6844 55.0652 13.3332 54.2174 13.3332 53.3333V26.6666C13.3434 26.1605 13.4687 25.6633 13.6998 25.2128C13.9308 24.7623 14.2614 24.3703 14.6665 24.0666L9.99984 19.3333C8.96611 20.2577 8.13596 21.387 7.56211 22.6495C6.98826 23.912 6.68327 25.28 6.6665 26.6666V53.3333C6.6665 55.9855 7.72007 58.529 9.59544 60.4044C11.4708 62.2797 14.0143 63.3333 16.6665 63.3333H46.6665C48.64 63.3367 50.5686 62.7442 52.1998 61.6333L47.1332 56.6666C46.978 56.6822 46.8217 56.6822 46.6665 56.6666ZM69.9998 23.8333C68.9871 23.3773 67.8626 23.229 66.7663 23.4068C65.6699 23.5845 64.6499 24.0806 63.8332 24.8333L56.6665 31.5V26.6666C56.6665 24.0145 55.6129 21.4709 53.7376 19.5956C51.8622 17.7202 49.3187 16.6666 46.6665 16.6666H26.0998L32.7665 23.3333H46.6665C47.5506 23.3333 48.3984 23.6845 49.0235 24.3096C49.6486 24.9347 49.9998 25.7826 49.9998 26.6666V40.5666L65.7332 56.3C66.3723 56.5418 67.0498 56.666 67.7332 56.6666C68.5264 56.6628 69.3099 56.4924 70.0332 56.1666C71.0163 55.7689 71.8586 55.0872 72.4523 54.2084C73.0461 53.3297 73.3644 52.2938 73.3665 51.2333V28.7666C73.3617 27.7023 73.0385 26.6637 72.4385 25.7845C71.8385 24.9053 70.9892 24.2258 69.9998 23.8333ZM66.6665 48.6666L57.2998 40L66.6665 31.3333V48.6666Z" fill="black"/>
</svg>
