<svg width="80" height="80" viewBox="0 0 80 80" fill="none" xmlns="http://www.w3.org/2000/svg">
<path d="M20.0002 26.6663H50.0002V19.9997C50.0002 17.2219 49.0279 14.8608 47.0835 12.9163C45.1391 10.9719 42.7779 9.99968 40.0002 9.99968C37.2224 9.99968 34.8613 10.9719 32.9168 12.9163C30.9724 14.8608 30.0002 17.2219 30.0002 19.9997H23.3335C23.3335 15.3886 24.9591 11.4586 28.2102 8.20968C31.4613 4.96079 35.3913 3.33523 40.0002 3.33301C44.6091 3.33079 48.5402 4.95634 51.7935 8.20968C55.0468 11.463 56.6713 15.393 56.6668 19.9997V26.6663H60.0002C61.8335 26.6663 63.4035 27.3197 64.7102 28.6263C66.0168 29.933 66.6691 31.5019 66.6668 33.333V66.6663C66.6668 68.4997 66.0146 70.0697 64.7102 71.3763C63.4057 72.683 61.8357 73.3352 60.0002 73.333H20.0002C18.1668 73.333 16.5979 72.6808 15.2935 71.3763C13.9891 70.0719 13.3357 68.5019 13.3335 66.6663V33.333C13.3335 31.4997 13.9868 29.9308 15.2935 28.6263C16.6002 27.3219 18.1691 26.6686 20.0002 26.6663ZM20.0002 66.6663H60.0002V33.333H20.0002V66.6663ZM40.0002 56.6663C41.8335 56.6663 43.4035 56.0141 44.7102 54.7097C46.0168 53.4052 46.6691 51.8352 46.6668 49.9997C46.6646 48.1641 46.0124 46.5952 44.7102 45.293C43.4079 43.9908 41.8379 43.3375 40.0002 43.333C38.1624 43.3286 36.5935 43.9819 35.2935 45.293C33.9935 46.6041 33.3402 48.173 33.3335 49.9997C33.3268 51.8263 33.9802 53.3963 35.2935 54.7097C36.6068 56.023 38.1757 56.6752 40.0002 56.6663Z" fill="black"/>
</svg>
